<svg xmlns="http://www.w3.org/2000/svg" xmlns:xlink="http://www.w3.org/1999/xlink" width="1677" zoomAndPan="magnify" viewBox="0 0 1257.75 550.499984" height="734" preserveAspectRatio="xMidYMid meet" version="1.0"><defs><g/><clipPath id="8e8e69fb0c"><rect x="0" width="893" y="0" height="476"/></clipPath></defs><g transform="matrix(1, 0, 0, 1, 182, 36)"><g clip-path="url(#8e8e69fb0c)"><g fill="#000000" fill-opacity="1"><g transform="translate(1.288767, 197.233241)"><g><path d="M 60.71875 -35.046875 C 59.875 -34.117188 59.113281 -33.1875 58.4375 -32.25 C 57.769531 -31.320312 57.140625 -30.394531 56.546875 -29.46875 C 55.617188 -27.875 54.816406 -26.082031 54.140625 -24.09375 C 53.460938 -22.113281 53.269531 -20.195312 53.5625 -18.34375 C 53.863281 -16.488281 54.941406 -14.925781 56.796875 -13.65625 C 59.242188 -11.96875 62.929688 -11.0625 67.859375 -10.9375 C 72.796875 -10.8125 79.101562 -11.757812 86.78125 -13.78125 C 94.113281 -15.8125 101.023438 -18.425781 107.515625 -21.625 C 114.015625 -24.832031 119.984375 -28.414062 125.421875 -32.375 C 130.859375 -36.34375 135.578125 -40.5 139.578125 -44.84375 C 143.585938 -49.1875 146.734375 -53.425781 149.015625 -57.5625 C 150.285156 -59.914062 151.296875 -62.378906 152.046875 -64.953125 C 152.804688 -67.523438 152.972656 -70.078125 152.546875 -72.609375 C 152.128906 -75.140625 150.703125 -77.375 148.265625 -79.3125 C 145.984375 -81.082031 143.175781 -82.328125 139.84375 -83.046875 C 136.507812 -83.765625 132.925781 -84.082031 129.09375 -84 C 125.257812 -83.914062 121.378906 -83.597656 117.453125 -83.046875 C 113.535156 -82.492188 109.867188 -81.835938 106.453125 -81.078125 C 103.035156 -80.328125 100.101562 -79.613281 97.65625 -78.9375 C 85.851562 -75.8125 75.164062 -71.71875 65.59375 -66.65625 C 56.019531 -61.601562 47.710938 -56.0625 40.671875 -50.03125 C 33.628906 -44 27.914062 -37.820312 23.53125 -31.5 C 21.59375 -28.632812 19.820312 -25.492188 18.21875 -22.078125 C 16.613281 -18.660156 15.410156 -15.117188 14.609375 -11.453125 C 13.804688 -7.785156 13.65625 -4.15625 14.15625 -0.5625 C 14.664062 3.019531 16.0625 6.367188 18.34375 9.484375 C 21.039062 13.109375 24.453125 15.804688 28.578125 17.578125 C 32.710938 19.347656 36.929688 20.570312 41.234375 21.25 C 53.546875 23.1875 65.476562 22.953125 77.03125 20.546875 C 88.59375 18.148438 99.597656 14.0625 110.046875 8.28125 C 120.503906 2.507812 130.289062 -4.425781 139.40625 -12.53125 C 148.851562 -21.039062 157.894531 -30.332031 166.53125 -40.40625 C 175.175781 -50.488281 183.546875 -60.503906 191.640625 -70.453125 C 198.984375 -79.484375 206.21875 -88.128906 213.34375 -96.390625 C 220.46875 -104.660156 227.570312 -112.019531 234.65625 -118.46875 C 241.738281 -124.914062 248.925781 -130.054688 256.21875 -133.890625 C 263.519531 -137.734375 271.003906 -139.695312 278.671875 -139.78125 C 283.398438 -139.863281 286.878906 -138.867188 289.109375 -136.796875 C 291.347656 -134.734375 292.488281 -132.078125 292.53125 -128.828125 C 292.570312 -125.585938 291.582031 -122.15625 289.5625 -118.53125 C 287.53125 -114.820312 284.488281 -111.238281 280.4375 -107.78125 C 276.394531 -104.320312 271.378906 -101.492188 265.390625 -99.296875 C 274.160156 -97.109375 283.457031 -95.191406 293.28125 -93.546875 C 303.113281 -91.898438 313.003906 -90.882812 322.953125 -90.5 C 332.898438 -90.125 342.300781 -90.65625 351.15625 -92.09375 C 352.09375 -92.257812 353.59375 -92.550781 355.65625 -92.96875 C 357.71875 -93.394531 359.882812 -93.988281 362.15625 -94.75 C 364.4375 -95.507812 366.441406 -96.414062 368.171875 -97.46875 C 369.898438 -98.519531 370.851562 -99.722656 371.03125 -101.078125 C 370.851562 -98.296875 369.582031 -96.125 367.21875 -94.5625 C 364.863281 -93 362.503906 -91.878906 360.140625 -91.203125 C 355.085938 -89.597656 349.332031 -88.628906 342.875 -88.296875 C 336.425781 -87.960938 329.679688 -88.066406 322.640625 -88.609375 C 315.597656 -89.160156 308.554688 -90.003906 301.515625 -91.140625 C 294.472656 -92.273438 287.785156 -93.539062 281.453125 -94.9375 C 275.128906 -96.332031 269.523438 -97.703125 264.640625 -99.046875 C 262.359375 -98.203125 259.828125 -97.53125 257.046875 -97.03125 C 251.398438 -95.84375 246.890625 -95.457031 243.515625 -95.875 C 240.140625 -96.300781 237.878906 -97.101562 236.734375 -98.28125 C 235.597656 -99.46875 235.597656 -100.609375 236.734375 -101.703125 C 237.878906 -102.796875 240.179688 -103.445312 243.640625 -103.65625 C 247.097656 -103.875 251.691406 -103.179688 257.421875 -101.578125 C 258.609375 -101.242188 259.8125 -100.90625 261.03125 -100.5625 C 262.25 -100.226562 263.453125 -99.894531 264.640625 -99.5625 C 270.628906 -101.664062 275.6875 -104.488281 279.8125 -108.03125 C 283.945312 -111.570312 287.023438 -115.15625 289.046875 -118.78125 C 290.992188 -122.238281 291.988281 -125.546875 292.03125 -128.703125 C 292.070312 -131.867188 291.015625 -134.441406 288.859375 -136.421875 C 286.710938 -138.410156 283.316406 -139.363281 278.671875 -139.28125 C 271.679688 -139.195312 264.9375 -137.335938 258.4375 -133.703125 C 251.945312 -130.078125 245.601562 -125.207031 239.40625 -119.09375 C 233.207031 -112.976562 227.007812 -105.976562 220.8125 -98.09375 C 214.613281 -90.207031 208.265625 -81.878906 201.765625 -73.109375 C 196.367188 -65.859375 190.800781 -58.519531 185.0625 -51.09375 C 179.332031 -43.675781 173.367188 -36.46875 167.171875 -29.46875 C 160.972656 -22.46875 154.414062 -15.890625 147.5 -9.734375 C 140.582031 -3.492188 132.882812 1.921875 124.40625 6.515625 C 115.9375 11.109375 107.019531 14.773438 97.65625 17.515625 C 88.289062 20.253906 78.800781 22.003906 69.1875 22.765625 C 59.582031 23.523438 50.179688 23.191406 40.984375 21.765625 C 36.515625 21.085938 32.171875 19.820312 27.953125 17.96875 C 23.734375 16.113281 20.273438 13.242188 17.578125 9.359375 C 15.222656 6.066406 13.75 2.566406 13.15625 -1.140625 C 12.5625 -4.847656 12.625 -8.617188 13.34375 -12.453125 C 14.0625 -16.296875 15.222656 -20.007812 16.828125 -23.59375 C 18.429688 -27.175781 20.242188 -30.484375 22.265625 -33.515625 C 26.566406 -40.015625 32.175781 -46.320312 39.09375 -52.4375 C 46.007812 -58.550781 54.164062 -64.113281 63.5625 -69.125 C 72.96875 -74.144531 83.488281 -78.21875 95.125 -81.34375 C 108.707031 -85.050781 119.710938 -86.90625 128.140625 -86.90625 C 136.578125 -86.90625 142.863281 -85.597656 147 -82.984375 C 150.28125 -80.960938 152.320312 -78.472656 153.125 -75.515625 C 153.925781 -72.566406 153.925781 -69.488281 153.125 -66.28125 C 152.320312 -63.082031 151.117188 -60.085938 149.515625 -57.296875 C 147.160156 -53.085938 143.976562 -48.8125 139.96875 -44.46875 C 135.96875 -40.125 131.242188 -35.945312 125.796875 -31.9375 C 120.359375 -27.9375 114.347656 -24.332031 107.765625 -21.125 C 101.191406 -17.914062 94.238281 -15.300781 86.90625 -13.28125 C 79.144531 -11.175781 72.753906 -10.207031 67.734375 -10.375 C 62.722656 -10.539062 58.992188 -11.425781 56.546875 -13.03125 C 54.609375 -14.46875 53.363281 -16.113281 52.8125 -17.96875 C 52.257812 -19.820312 52.21875 -21.78125 52.6875 -23.84375 C 53.15625 -25.90625 53.851562 -27.820312 54.78125 -29.59375 C 55.28125 -30.695312 55.910156 -31.773438 56.671875 -32.828125 C 57.429688 -33.878906 58.234375 -34.910156 59.078125 -35.921875 C 56.210938 -37.773438 53.828125 -40.113281 51.921875 -42.9375 C 50.023438 -45.769531 48.53125 -49 47.4375 -52.625 L 47.6875 -52.375 C 49.707031 -45.375 53.628906 -40.0625 59.453125 -36.4375 C 63.078125 -40.738281 67.925781 -44.847656 74 -48.765625 C 80.070312 -52.679688 86.945312 -55.695312 94.625 -57.8125 C 100.019531 -59.25 104.445312 -59.941406 107.90625 -59.890625 C 111.363281 -59.847656 113.894531 -59.28125 115.5 -58.1875 C 117.351562 -57.09375 118.28125 -55.679688 118.28125 -53.953125 C 118.28125 -52.222656 117.816406 -50.515625 116.890625 -48.828125 C 115.367188 -46.046875 112.644531 -43.238281 108.71875 -40.40625 C 104.800781 -37.582031 99.976562 -35.414062 94.25 -33.90625 C 90.789062 -32.976562 87.097656 -32.257812 83.171875 -31.75 C 79.253906 -31.25 75.375 -31.207031 71.53125 -31.625 C 67.695312 -32.039062 64.09375 -33.179688 60.71875 -35.046875 Z M 111.953125 -57.5625 C 110.179688 -57.894531 107.96875 -57.929688 105.3125 -57.671875 C 102.65625 -57.421875 99.554688 -56.789062 96.015625 -55.78125 C 89.691406 -54.09375 83.40625 -51.519531 77.15625 -48.0625 C 70.914062 -44.613281 65.5625 -40.398438 61.09375 -35.421875 C 64.382812 -33.648438 67.925781 -32.550781 71.71875 -32.125 C 75.519531 -31.707031 79.359375 -31.75 83.234375 -32.25 C 87.117188 -32.757812 90.789062 -33.476562 94.25 -34.40625 C 99.8125 -35.925781 104.53125 -38.054688 108.40625 -40.796875 C 112.289062 -43.535156 114.945312 -46.335938 116.375 -49.203125 C 117.5625 -51.398438 117.796875 -53.234375 117.078125 -54.703125 C 116.359375 -56.179688 114.648438 -57.132812 111.953125 -57.5625 Z M 257.046875 -97.53125 C 258.222656 -97.78125 259.335938 -98.03125 260.390625 -98.28125 C 261.453125 -98.539062 262.488281 -98.835938 263.5 -99.171875 C 262.488281 -99.515625 261.453125 -99.832031 260.390625 -100.125 C 259.335938 -100.414062 258.304688 -100.734375 257.296875 -101.078125 C 251.816406 -102.679688 247.410156 -103.414062 244.078125 -103.28125 C 240.742188 -103.15625 238.53125 -102.585938 237.4375 -101.578125 C 236.34375 -100.566406 236.320312 -99.535156 237.375 -98.484375 C 238.425781 -97.429688 240.597656 -96.710938 243.890625 -96.328125 C 247.179688 -95.953125 251.566406 -96.351562 257.046875 -97.53125 Z M 257.046875 -97.53125 "/></g></g></g><g fill="#000000" fill-opacity="1"><g transform="translate(176.980513, 197.233241)"><g><path d="M 22.390625 -21.125 L 22.765625 -20.625 C 19.390625 -17.582031 15.765625 -14.4375 11.890625 -11.1875 C 8.015625 -7.945312 4.09375 -5.101562 0.125 -2.65625 C -1.132812 -1.894531 -2.609375 -1.195312 -4.296875 -0.5625 C -5.984375 0.0625 -7.546875 0.207031 -8.984375 -0.125 C -11.347656 -0.882812 -12.398438 -2.53125 -12.140625 -5.0625 C -11.972656 -6.75 -11.171875 -8.707031 -9.734375 -10.9375 C -8.304688 -13.175781 -6.15625 -15.601562 -3.28125 -18.21875 L 23.53125 -42.5 L 30.484375 -42.5 L -3.546875 -11.515625 C -5.398438 -9.828125 -6.769531 -8.304688 -7.65625 -6.953125 C -8.539062 -5.609375 -9.066406 -4.472656 -9.234375 -3.546875 C -9.398438 -2.023438 -8.769531 -1.140625 -7.34375 -0.890625 C -5.476562 -0.628906 -3.03125 -1.382812 0 -3.15625 C 3.789062 -5.601562 7.625 -8.425781 11.5 -11.625 C 15.382812 -14.832031 19.015625 -18 22.390625 -21.125 Z M 47.6875 -62.875 C 48.195312 -62.363281 48.132812 -61.429688 47.5 -60.078125 C 46.863281 -58.734375 45.875 -57.390625 44.53125 -56.046875 C 43.175781 -54.691406 41.820312 -53.71875 40.46875 -53.125 C 39.125 -52.539062 38.203125 -52.414062 37.703125 -52.75 C 37.191406 -53.257812 37.273438 -54.1875 37.953125 -55.53125 C 38.628906 -56.882812 39.640625 -58.234375 40.984375 -59.578125 C 42.335938 -61.015625 43.664062 -62.046875 44.96875 -62.671875 C 46.28125 -63.304688 47.1875 -63.375 47.6875 -62.875 Z M 47.6875 -62.875 "/></g></g></g><g fill="#000000" fill-opacity="1"><g transform="translate(199.368886, 197.233241)"><g><path d="M 32.765625 -30.484375 C 30.910156 -29.304688 28.945312 -28.335938 26.875 -27.578125 C 24.8125 -26.816406 22.875 -26.351562 21.0625 -26.1875 C 19.25 -26.019531 17.859375 -26.1875 16.890625 -26.6875 C 15.921875 -27.195312 15.601562 -28.125 15.9375 -29.46875 C 14.414062 -28.207031 12.9375 -26.921875 11.5 -25.609375 C 10.070312 -24.304688 8.640625 -22.976562 7.203125 -21.625 C 4.585938 -19.007812 2.375 -16.476562 0.5625 -14.03125 C -1.25 -11.59375 -2.488281 -9.40625 -3.15625 -7.46875 C -3.832031 -5.695312 -3.875 -4.320312 -3.28125 -3.34375 C -2.695312 -2.375 -1.347656 -2.0625 0.765625 -2.40625 C 3.117188 -2.820312 5.664062 -3.679688 8.40625 -4.984375 C 11.15625 -6.296875 13.921875 -7.898438 16.703125 -9.796875 C 19.484375 -11.703125 22.09375 -13.644531 24.53125 -15.625 C 26.976562 -17.601562 29.085938 -19.4375 30.859375 -21.125 L 31.25 -20.625 C 29.476562 -19.019531 27.367188 -17.222656 24.921875 -15.234375 C 22.472656 -13.253906 19.835938 -11.296875 17.015625 -9.359375 C 14.191406 -7.421875 11.382812 -5.773438 8.59375 -4.421875 C 5.8125 -3.078125 3.242188 -2.234375 0.890625 -1.890625 C -2.148438 -1.390625 -4.34375 -1.8125 -5.6875 -3.15625 C -7.039062 -4.507812 -7.378906 -6.617188 -6.703125 -9.484375 C -6.203125 -11.679688 -5.128906 -14.039062 -3.484375 -16.5625 C -1.835938 -19.09375 0.207031 -21.539062 2.65625 -23.90625 C 6.113281 -27.28125 10.160156 -30.523438 14.796875 -33.640625 C 19.441406 -36.765625 24 -39.171875 28.46875 -40.859375 C 29.3125 -41.109375 30.445312 -41.441406 31.875 -41.859375 C 33.3125 -42.285156 34.742188 -42.5 36.171875 -42.5 C 37.609375 -42.5 38.664062 -42.035156 39.34375 -41.109375 C 40.019531 -40.179688 40.082031 -39.0625 39.53125 -37.75 C 38.976562 -36.445312 38.09375 -35.140625 36.875 -33.828125 C 35.65625 -32.523438 34.285156 -31.410156 32.765625 -30.484375 Z M 39.09375 -40.859375 C 38.414062 -41.703125 37.316406 -41.953125 35.796875 -41.609375 C 34.273438 -41.273438 32.628906 -40.625 30.859375 -39.65625 C 29.085938 -38.6875 27.460938 -37.71875 25.984375 -36.75 C 24.515625 -35.78125 23.484375 -35.082031 22.890625 -34.65625 C 21.878906 -33.988281 20.867188 -33.273438 19.859375 -32.515625 C 18.847656 -31.753906 17.835938 -30.992188 16.828125 -30.234375 C 16.234375 -28.628906 16.71875 -27.703125 18.28125 -27.453125 C 19.84375 -27.203125 21.929688 -27.492188 24.546875 -28.328125 C 27.160156 -29.171875 29.644531 -30.394531 32 -32 C 33.4375 -32.84375 34.765625 -33.832031 35.984375 -34.96875 C 37.210938 -36.113281 38.140625 -37.234375 38.765625 -38.328125 C 39.398438 -39.421875 39.507812 -40.265625 39.09375 -40.859375 Z M 39.09375 -40.859375 "/></g></g></g><g fill="#000000" fill-opacity="1"><g transform="translate(230.231942, 197.233241)"><g><path d="M 61.609375 -21.125 L 61.984375 -20.625 C 58.609375 -17.582031 54.976562 -14.4375 51.09375 -11.1875 C 47.21875 -7.945312 43.300781 -5.101562 39.34375 -2.65625 C 38.070312 -1.894531 36.570312 -1.195312 34.84375 -0.5625 C 33.113281 0.0625 31.535156 0.207031 30.109375 -0.125 C 27.742188 -0.800781 26.6875 -2.445312 26.9375 -5.0625 C 27.195312 -6.75 28.019531 -8.707031 29.40625 -10.9375 C 30.800781 -13.175781 32.972656 -15.601562 35.921875 -18.21875 L 49.84375 -31 C 51.613281 -32.675781 52.960938 -34.191406 53.890625 -35.546875 C 54.816406 -36.898438 55.363281 -38.039062 55.53125 -38.96875 C 55.695312 -40.644531 55.066406 -41.53125 53.640625 -41.625 C 51.953125 -42.039062 49.546875 -41.238281 46.421875 -39.21875 C 43.472656 -37.445312 40.5 -35.398438 37.5 -33.078125 C 34.507812 -30.753906 31.625 -28.414062 28.84375 -26.0625 C 28.082031 -25.21875 27.257812 -24.332031 26.375 -23.40625 C 25.488281 -22.476562 24.539062 -21.550781 23.53125 -20.625 L 1.015625 -0.125 L -6.328125 -0.125 L 21.125 -25.046875 C 24.664062 -28.253906 27.40625 -31.035156 29.34375 -33.390625 C 31.28125 -35.753906 32.503906 -37.65625 33.015625 -39.09375 C 33.347656 -40.351562 33.238281 -41.171875 32.6875 -41.546875 C 32.144531 -41.929688 31.285156 -42.039062 30.109375 -41.875 C 28.335938 -41.445312 25.867188 -40.304688 22.703125 -38.453125 C 19.546875 -36.597656 15.859375 -33.859375 11.640625 -30.234375 L 0.375 -20.625 L 0 -21.125 L 11.265625 -30.734375 C 12.691406 -31.921875 14.585938 -33.398438 16.953125 -35.171875 C 19.316406 -36.941406 21.828125 -38.5625 24.484375 -40.03125 C 27.140625 -41.507812 29.476562 -42.332031 31.5 -42.5 C 33.1875 -42.664062 34.34375 -42.304688 34.96875 -41.421875 C 35.601562 -40.535156 35.796875 -39.253906 35.546875 -37.578125 C 35.035156 -35.046875 33.429688 -31.96875 30.734375 -28.34375 C 33.179688 -30.445312 35.710938 -32.488281 38.328125 -34.46875 C 40.941406 -36.445312 43.554688 -38.238281 46.171875 -39.84375 C 47.429688 -40.601562 48.882812 -41.300781 50.53125 -41.9375 C 52.175781 -42.570312 53.757812 -42.71875 55.28125 -42.375 C 57.644531 -41.695312 58.738281 -40.050781 58.5625 -37.4375 C 58.3125 -35.84375 57.488281 -33.925781 56.09375 -31.6875 C 54.707031 -29.457031 52.5 -26.988281 49.46875 -24.28125 L 35.546875 -11.515625 C 32.085938 -8.222656 30.234375 -5.566406 29.984375 -3.546875 C 29.722656 -2.023438 30.351562 -1.140625 31.875 -0.890625 C 33.644531 -0.628906 36.007812 -1.382812 38.96875 -3.15625 C 42.925781 -5.601562 46.84375 -8.425781 50.71875 -11.625 C 54.601562 -14.832031 58.234375 -18 61.609375 -21.125 Z M 61.609375 -21.125 "/></g></g></g><g fill="#000000" fill-opacity="1"><g transform="translate(291.831564, 197.233241)"><g><path d="M 26.0625 -2.65625 C 24.707031 -1.894531 23.1875 -1.195312 21.5 -0.5625 C 19.8125 0.0625 18.253906 0.207031 16.828125 -0.125 C 14.460938 -0.800781 13.363281 -2.445312 13.53125 -5.0625 C 13.695312 -6.488281 14.367188 -8.171875 15.546875 -10.109375 C 16.734375 -12.054688 18.507812 -14.210938 20.875 -16.578125 C 17.914062 -14.046875 14.601562 -11.492188 10.9375 -8.921875 C 7.269531 -6.347656 3.789062 -4.34375 0.5 -2.90625 C -0.0820312 -2.65625 -0.648438 -2.445312 -1.203125 -2.28125 C -1.753906 -2.113281 -2.28125 -1.984375 -2.78125 -1.890625 C -5.476562 -1.046875 -7.4375 -1.191406 -8.65625 -2.328125 C -9.882812 -3.472656 -9.953125 -5.476562 -8.859375 -8.34375 C -8.015625 -10.875 -6.328125 -13.703125 -3.796875 -16.828125 C -2.523438 -18.515625 -1.03125 -20.265625 0.6875 -22.078125 C 2.414062 -23.890625 4.210938 -25.640625 6.078125 -27.328125 C 7.503906 -28.585938 9.378906 -30.039062 11.703125 -31.6875 C 14.023438 -33.332031 16.515625 -34.929688 19.171875 -36.484375 C 21.828125 -38.046875 24.460938 -39.375 27.078125 -40.46875 C 29.691406 -41.570312 32.09375 -42.226562 34.28125 -42.4375 C 36.476562 -42.644531 38.207031 -42.203125 39.46875 -41.109375 C 40.8125 -40.179688 40.515625 -38.203125 38.578125 -35.171875 C 37.734375 -33.816406 36.722656 -32.378906 35.546875 -30.859375 C 34.367188 -29.347656 33.101562 -27.875 31.75 -26.4375 L 49.328125 -42.5 L 56.171875 -42.5 L 22.265625 -11.515625 C 18.804688 -8.222656 16.953125 -5.566406 16.703125 -3.546875 C 16.273438 -2.023438 16.863281 -1.140625 18.46875 -0.890625 C 20.238281 -0.628906 22.640625 -1.382812 25.671875 -3.15625 C 29.640625 -5.601562 33.5625 -8.425781 37.4375 -11.625 C 41.320312 -14.832031 44.953125 -18 48.328125 -21.125 L 48.703125 -20.625 C 45.328125 -17.582031 41.695312 -14.4375 37.8125 -11.1875 C 33.9375 -7.945312 30.019531 -5.101562 26.0625 -2.65625 Z M 39.09375 -40.859375 C 38.164062 -41.617188 36.6875 -41.617188 34.65625 -40.859375 C 32.632812 -40.097656 30.335938 -38.9375 27.765625 -37.375 C 25.191406 -35.820312 22.640625 -34.113281 20.109375 -32.25 C 17.578125 -30.394531 15.34375 -28.6875 13.40625 -27.125 C 11.46875 -25.570312 10.160156 -24.457031 9.484375 -23.78125 C 7.035156 -21.675781 4.546875 -19.378906 2.015625 -16.890625 C -0.503906 -14.398438 -2.648438 -11.804688 -4.421875 -9.109375 C -5.015625 -8.347656 -5.601562 -7.394531 -6.1875 -6.25 C -6.78125 -5.113281 -6.972656 -4.101562 -6.765625 -3.21875 C -6.554688 -2.332031 -5.648438 -1.9375 -4.046875 -2.03125 C -2.953125 -2.113281 -1.476562 -2.578125 0.375 -3.421875 C 4.09375 -5.015625 7.929688 -7.265625 11.890625 -10.171875 C 15.859375 -13.085938 19.359375 -15.851562 22.390625 -18.46875 C 24.078125 -19.90625 25.929688 -21.59375 27.953125 -23.53125 C 29.984375 -25.46875 31.925781 -27.46875 33.78125 -29.53125 C 35.632812 -31.601562 37.109375 -33.609375 38.203125 -35.546875 C 38.878906 -36.722656 39.320312 -37.796875 39.53125 -38.765625 C 39.738281 -39.742188 39.59375 -40.441406 39.09375 -40.859375 Z M 39.09375 -40.859375 "/></g></g></g><g fill="#000000" fill-opacity="1"><g transform="translate(340.149933, 197.233241)"><g/></g></g><g fill="#000000" fill-opacity="1"><g transform="translate(371.518954, 197.233241)"><g><path d="M 204.671875 -169 C 209.398438 -162 212.351562 -154.914062 213.53125 -147.75 C 214.707031 -140.582031 214.410156 -133.394531 212.640625 -126.1875 C 210.867188 -118.976562 207.976562 -111.828125 203.96875 -104.734375 C 199.96875 -97.648438 195.140625 -90.691406 189.484375 -83.859375 C 183.835938 -77.035156 177.703125 -70.4375 171.078125 -64.0625 C 164.460938 -57.695312 157.695312 -51.601562 150.78125 -45.78125 C 143.875 -39.96875 137.109375 -34.53125 130.484375 -29.46875 C 123.859375 -24.414062 117.722656 -19.78125 112.078125 -15.5625 C 111.742188 -15.21875 110.601562 -14.347656 108.65625 -12.953125 C 106.71875 -11.566406 104.441406 -9.882812 101.828125 -7.90625 C 99.210938 -5.925781 96.703125 -3.898438 94.296875 -1.828125 C 91.898438 0.234375 89.984375 2.046875 88.546875 3.609375 C 87.117188 5.171875 86.65625 6.203125 87.15625 6.703125 C 89.09375 8.640625 92.148438 8.867188 96.328125 7.390625 C 100.503906 5.921875 105.648438 3.144531 111.765625 -0.9375 C 117.878906 -5.03125 124.769531 -10.09375 132.4375 -16.125 C 140.113281 -22.15625 148.421875 -28.796875 157.359375 -36.046875 C 166.472656 -43.304688 176.085938 -50.898438 186.203125 -58.828125 C 196.328125 -66.753906 206.785156 -74.613281 217.578125 -82.40625 C 228.367188 -90.207031 239.351562 -97.585938 250.53125 -104.546875 C 261.707031 -111.503906 272.878906 -117.679688 284.046875 -123.078125 C 295.222656 -128.484375 306.25 -132.722656 317.125 -135.796875 C 328.007812 -138.878906 338.554688 -140.421875 348.765625 -140.421875 C 359.972656 -140.421875 369.179688 -139.257812 376.390625 -136.9375 C 383.609375 -134.613281 389.050781 -131.507812 392.71875 -127.625 C 396.382812 -123.75 398.40625 -119.515625 398.78125 -114.921875 C 399.164062 -110.328125 398.09375 -105.734375 395.5625 -101.140625 C 393.03125 -96.546875 389.234375 -92.304688 384.171875 -88.421875 C 379.117188 -84.546875 372.960938 -81.445312 365.703125 -79.125 C 358.453125 -76.800781 350.273438 -75.640625 341.171875 -75.640625 C 339.398438 -75.640625 336.953125 -75.742188 333.828125 -75.953125 C 330.710938 -76.171875 327.34375 -76.550781 323.71875 -77.09375 C 320.09375 -77.644531 316.675781 -78.507812 313.46875 -79.6875 C 310.257812 -80.875 307.625 -82.394531 305.5625 -84.25 C 303.5 -86.101562 302.46875 -88.460938 302.46875 -91.328125 C 302.550781 -94.535156 303.8125 -97.296875 306.25 -99.609375 C 308.695312 -101.929688 311.941406 -103.722656 315.984375 -104.984375 C 320.035156 -106.253906 324.507812 -106.972656 329.40625 -107.140625 C 334.300781 -107.304688 339.234375 -106.863281 344.203125 -105.8125 C 349.179688 -104.757812 353.84375 -103.050781 358.1875 -100.6875 C 362.53125 -98.332031 366.132812 -95.210938 369 -91.328125 L 368.875 -91.328125 C 366.007812 -95.128906 362.425781 -98.1875 358.125 -100.5 C 353.820312 -102.820312 349.222656 -104.488281 344.328125 -105.5 C 339.441406 -106.507812 334.570312 -106.910156 329.71875 -106.703125 C 324.875 -106.492188 320.445312 -105.753906 316.4375 -104.484375 C 312.4375 -103.222656 309.234375 -101.492188 306.828125 -99.296875 C 304.421875 -97.109375 303.21875 -94.453125 303.21875 -91.328125 C 303.132812 -88.628906 304.101562 -86.351562 306.125 -84.5 C 308.15625 -82.644531 310.769531 -81.171875 313.96875 -80.078125 C 317.175781 -78.984375 320.550781 -78.140625 324.09375 -77.546875 C 327.632812 -76.953125 330.941406 -76.570312 334.015625 -76.40625 C 337.097656 -76.238281 339.484375 -76.15625 341.171875 -76.15625 C 350.191406 -76.15625 358.285156 -77.3125 365.453125 -79.625 C 372.617188 -81.945312 378.710938 -84.984375 383.734375 -88.734375 C 388.753906 -92.492188 392.53125 -96.648438 395.0625 -101.203125 C 397.59375 -105.753906 398.664062 -110.304688 398.28125 -114.859375 C 397.90625 -119.410156 395.925781 -123.5625 392.34375 -127.3125 C 388.757812 -131.070312 383.378906 -134.109375 376.203125 -136.421875 C 369.035156 -138.742188 359.890625 -139.90625 348.765625 -139.90625 C 338.554688 -139.90625 328.03125 -138.363281 317.1875 -135.28125 C 306.351562 -132.207031 295.347656 -127.992188 284.171875 -122.640625 C 273.003906 -117.285156 261.875 -111.128906 250.78125 -104.171875 C 239.695312 -97.210938 228.753906 -89.8125 217.953125 -81.96875 C 207.160156 -74.125 196.703125 -66.238281 186.578125 -58.3125 C 176.460938 -50.382812 166.851562 -42.753906 157.75 -35.421875 C 148.8125 -28.253906 140.460938 -21.632812 132.703125 -15.5625 C 124.941406 -9.488281 117.984375 -4.40625 111.828125 -0.3125 C 105.671875 3.769531 100.460938 6.53125 96.203125 7.96875 C 91.941406 9.40625 88.800781 9.109375 86.78125 7.078125 C 85.507812 5.816406 85.925781 3.707031 88.03125 0.75 C 90.144531 -2.195312 93.476562 -5.84375 98.03125 -10.1875 C 102.59375 -14.53125 108.035156 -19.441406 114.359375 -24.921875 C 120.679688 -30.398438 127.425781 -36.320312 134.59375 -42.6875 C 141.757812 -49.0625 148.988281 -55.722656 156.28125 -62.671875 C 163.582031 -69.628906 170.539062 -76.773438 177.15625 -84.109375 C 183.78125 -91.453125 189.644531 -98.832031 194.75 -106.25 C 199.851562 -113.675781 203.835938 -121.015625 206.703125 -128.265625 C 209.566406 -135.523438 210.894531 -142.566406 210.6875 -149.390625 C 210.476562 -156.222656 208.304688 -162.675781 204.171875 -168.75 C 200.460938 -174.3125 195.800781 -178.675781 190.1875 -181.84375 C 184.582031 -185.007812 178.550781 -187.242188 172.09375 -188.546875 C 165.644531 -189.859375 159.257812 -190.515625 152.9375 -190.515625 C 139.1875 -190.515625 125.96875 -188.675781 113.28125 -185 C 100.59375 -181.332031 88.578125 -176.273438 77.234375 -169.828125 C 65.890625 -163.378906 55.390625 -156 45.734375 -147.6875 C 36.078125 -139.382812 27.410156 -130.550781 19.734375 -121.1875 C 12.054688 -111.820312 5.519531 -102.421875 0.125 -92.984375 C -3.582031 -86.484375 -6.953125 -79.394531 -9.984375 -71.71875 C -13.023438 -64.050781 -14.925781 -56.378906 -15.6875 -48.703125 C -8.519531 -53.253906 -1.269531 -58.039062 6.0625 -63.0625 C 13.40625 -68.082031 20.785156 -73.160156 28.203125 -78.296875 C 39.003906 -85.804688 49.738281 -93.125 60.40625 -100.25 C 71.070312 -107.375 81.378906 -113.800781 91.328125 -119.53125 C 101.285156 -125.269531 110.648438 -129.828125 119.421875 -133.203125 C 128.191406 -136.578125 136.078125 -138.265625 143.078125 -138.265625 C 148.046875 -138.265625 152.003906 -137.609375 154.953125 -136.296875 C 157.910156 -134.992188 160.019531 -133.203125 161.28125 -130.921875 C 162.550781 -128.566406 163.015625 -125.890625 162.671875 -122.890625 C 162.335938 -119.898438 161.472656 -116.800781 160.078125 -113.59375 C 158.691406 -110.394531 157.023438 -107.253906 155.078125 -104.171875 C 153.140625 -101.097656 151.179688 -98.253906 149.203125 -95.640625 C 147.222656 -93.023438 145.515625 -90.875 144.078125 -89.1875 C 139.191406 -83.363281 133.539062 -77.4375 127.125 -71.40625 C 120.71875 -65.375 113.820312 -59.507812 106.4375 -53.8125 C 99.0625 -48.125 91.410156 -42.8125 83.484375 -37.875 C 75.554688 -32.945312 67.546875 -28.609375 59.453125 -24.859375 C 51.359375 -21.109375 43.410156 -18.175781 35.609375 -16.0625 C 27.804688 -13.957031 20.363281 -12.90625 13.28125 -12.90625 C 5.78125 -12.90625 -0.222656 -14.378906 -4.734375 -17.328125 C -9.253906 -20.285156 -12.441406 -24.398438 -14.296875 -29.671875 C -16.148438 -34.941406 -16.78125 -40.945312 -16.1875 -47.6875 C -25.550781 -41.875 -34.535156 -36.707031 -43.140625 -32.1875 C -51.742188 -27.675781 -59.773438 -24.238281 -67.234375 -21.875 C -74.703125 -19.519531 -81.40625 -18.570312 -87.34375 -19.03125 C -93.289062 -19.5 -98.332031 -21.800781 -102.46875 -25.9375 L -102.59375 -26.1875 C -98.539062 -22.132812 -93.519531 -19.875 -87.53125 -19.40625 C -81.550781 -18.945312 -74.804688 -19.921875 -67.296875 -22.328125 C -59.796875 -24.734375 -51.722656 -28.210938 -43.078125 -32.765625 C -34.429688 -37.316406 -25.46875 -42.546875 -16.1875 -48.453125 C -15.425781 -56.210938 -13.53125 -63.96875 -10.5 -71.71875 C -7.46875 -79.476562 -4.09375 -86.691406 -0.375 -93.359375 C 5.019531 -102.804688 11.570312 -112.1875 19.28125 -121.5 C 27 -130.820312 35.6875 -139.65625 45.34375 -148 C 55 -156.351562 65.519531 -163.753906 76.90625 -170.203125 C 88.289062 -176.660156 100.347656 -181.742188 113.078125 -185.453125 C 125.816406 -189.160156 139.101562 -191.015625 152.9375 -191.015625 C 159.34375 -191.015625 165.789062 -190.335938 172.28125 -188.984375 C 178.78125 -187.640625 184.851562 -185.382812 190.5 -182.21875 C 196.15625 -179.0625 200.878906 -174.65625 204.671875 -169 Z M -15.6875 -48.0625 C -16.28125 -41.320312 -15.691406 -35.335938 -13.921875 -30.109375 C -12.148438 -24.878906 -9.023438 -20.785156 -4.546875 -17.828125 C -0.078125 -14.878906 5.863281 -13.40625 13.28125 -13.40625 C 19.863281 -13.40625 26.863281 -14.5 34.28125 -16.6875 C 41.695312 -18.882812 49.304688 -21.941406 57.109375 -25.859375 C 64.910156 -29.785156 72.648438 -34.300781 80.328125 -39.40625 C 88.003906 -44.507812 95.445312 -49.988281 102.65625 -55.84375 C 109.863281 -61.707031 116.609375 -67.71875 122.890625 -73.875 C 129.171875 -80.03125 134.71875 -86.0625 139.53125 -91.96875 C 140.789062 -93.570312 142.367188 -95.613281 144.265625 -98.09375 C 146.171875 -100.582031 148.070312 -103.320312 149.96875 -106.3125 C 151.863281 -109.3125 153.523438 -112.347656 154.953125 -115.421875 C 156.390625 -118.503906 157.335938 -121.476562 157.796875 -124.34375 C 158.265625 -127.21875 157.953125 -129.75 156.859375 -131.9375 C 155.929688 -133.707031 154.328125 -135.117188 152.046875 -136.171875 C 149.773438 -137.234375 146.785156 -137.765625 143.078125 -137.765625 C 137.503906 -137.765625 131.34375 -136.644531 124.59375 -134.40625 C 117.851562 -132.164062 110.6875 -129.109375 103.09375 -125.234375 C 95.507812 -121.359375 87.625 -116.867188 79.4375 -111.765625 C 71.257812 -106.660156 62.890625 -101.21875 54.328125 -95.4375 C 45.765625 -89.664062 37.1875 -83.785156 28.59375 -77.796875 C 21.164062 -72.648438 13.71875 -67.566406 6.25 -62.546875 C -1.207031 -57.535156 -8.519531 -52.707031 -15.6875 -48.0625 Z M -15.6875 -48.0625 "/></g></g></g><g fill="#000000" fill-opacity="1"><g transform="translate(532.917589, 197.233241)"><g><path d="M 22.390625 -21.125 L 22.765625 -20.625 C 19.390625 -17.582031 15.765625 -14.4375 11.890625 -11.1875 C 8.015625 -7.945312 4.09375 -5.101562 0.125 -2.65625 C -1.132812 -1.894531 -2.609375 -1.195312 -4.296875 -0.5625 C -5.984375 0.0625 -7.546875 0.207031 -8.984375 -0.125 C -11.347656 -0.882812 -12.398438 -2.53125 -12.140625 -5.0625 C -11.972656 -6.75 -11.171875 -8.707031 -9.734375 -10.9375 C -8.304688 -13.175781 -6.15625 -15.601562 -3.28125 -18.21875 L 23.53125 -42.5 L 30.484375 -42.5 L -3.546875 -11.515625 C -5.398438 -9.828125 -6.769531 -8.304688 -7.65625 -6.953125 C -8.539062 -5.609375 -9.066406 -4.472656 -9.234375 -3.546875 C -9.398438 -2.023438 -8.769531 -1.140625 -7.34375 -0.890625 C -5.476562 -0.628906 -3.03125 -1.382812 0 -3.15625 C 3.789062 -5.601562 7.625 -8.425781 11.5 -11.625 C 15.382812 -14.832031 19.015625 -18 22.390625 -21.125 Z M 47.6875 -62.875 C 48.195312 -62.363281 48.132812 -61.429688 47.5 -60.078125 C 46.863281 -58.734375 45.875 -57.390625 44.53125 -56.046875 C 43.175781 -54.691406 41.820312 -53.71875 40.46875 -53.125 C 39.125 -52.539062 38.203125 -52.414062 37.703125 -52.75 C 37.191406 -53.257812 37.273438 -54.1875 37.953125 -55.53125 C 38.628906 -56.882812 39.640625 -58.234375 40.984375 -59.578125 C 42.335938 -61.015625 43.664062 -62.046875 44.96875 -62.671875 C 46.28125 -63.304688 47.1875 -63.375 47.6875 -62.875 Z M 47.6875 -62.875 "/></g></g></g><g fill="#000000" fill-opacity="1"><g transform="translate(555.305963, 197.233241)"><g><path d="M 22.390625 -21.125 L 22.765625 -20.625 C 19.390625 -17.582031 15.765625 -14.4375 11.890625 -11.1875 C 8.015625 -7.945312 4.09375 -5.101562 0.125 -2.65625 C -1.132812 -1.894531 -2.609375 -1.195312 -4.296875 -0.5625 C -5.984375 0.0625 -7.585938 0.207031 -9.109375 -0.125 C -11.554688 -0.882812 -12.566406 -2.53125 -12.140625 -5.0625 C -11.972656 -6.75 -11.171875 -8.707031 -9.734375 -10.9375 C -8.304688 -13.175781 -6.15625 -15.601562 -3.28125 -18.21875 L 65.40625 -80.453125 L 72.234375 -80.453125 L -3.421875 -11.515625 C -5.273438 -9.828125 -6.664062 -8.304688 -7.59375 -6.953125 C -8.519531 -5.609375 -9.066406 -4.472656 -9.234375 -3.546875 C -9.484375 -2.023438 -8.851562 -1.140625 -7.34375 -0.890625 C -5.570312 -0.628906 -3.164062 -1.382812 -0.125 -3.15625 C 3.75 -5.601562 7.625 -8.425781 11.5 -11.625 C 15.382812 -14.832031 19.015625 -18 22.390625 -21.125 Z M 22.390625 -21.125 "/></g></g></g><g fill="#000000" fill-opacity="1"><g transform="translate(577.694336, 197.233241)"><g><path d="M 22.390625 -21.125 L 22.765625 -20.625 C 19.390625 -17.582031 15.765625 -14.4375 11.890625 -11.1875 C 8.015625 -7.945312 4.09375 -5.101562 0.125 -2.65625 C -1.132812 -1.894531 -2.609375 -1.195312 -4.296875 -0.5625 C -5.984375 0.0625 -7.585938 0.207031 -9.109375 -0.125 C -11.554688 -0.882812 -12.566406 -2.53125 -12.140625 -5.0625 C -11.972656 -6.75 -11.171875 -8.707031 -9.734375 -10.9375 C -8.304688 -13.175781 -6.15625 -15.601562 -3.28125 -18.21875 L 65.40625 -80.453125 L 72.234375 -80.453125 L -3.421875 -11.515625 C -5.273438 -9.828125 -6.664062 -8.304688 -7.59375 -6.953125 C -8.519531 -5.609375 -9.066406 -4.472656 -9.234375 -3.546875 C -9.484375 -2.023438 -8.851562 -1.140625 -7.34375 -0.890625 C -5.570312 -0.628906 -3.164062 -1.382812 -0.125 -3.15625 C 3.75 -5.601562 7.625 -8.425781 11.5 -11.625 C 15.382812 -14.832031 19.015625 -18 22.390625 -21.125 Z M 22.390625 -21.125 "/></g></g></g><g fill="#000000" fill-opacity="1"><g transform="translate(600.08271, 197.233241)"><g><path d="M 26.0625 -2.65625 C 24.707031 -1.894531 23.1875 -1.195312 21.5 -0.5625 C 19.8125 0.0625 18.253906 0.207031 16.828125 -0.125 C 14.460938 -0.800781 13.363281 -2.445312 13.53125 -5.0625 C 13.695312 -6.488281 14.367188 -8.171875 15.546875 -10.109375 C 16.734375 -12.054688 18.507812 -14.210938 20.875 -16.578125 C 17.914062 -14.046875 14.601562 -11.492188 10.9375 -8.921875 C 7.269531 -6.347656 3.789062 -4.34375 0.5 -2.90625 C -0.0820312 -2.65625 -0.648438 -2.445312 -1.203125 -2.28125 C -1.753906 -2.113281 -2.28125 -1.984375 -2.78125 -1.890625 C -5.476562 -1.046875 -7.4375 -1.191406 -8.65625 -2.328125 C -9.882812 -3.472656 -9.953125 -5.476562 -8.859375 -8.34375 C -8.015625 -10.875 -6.328125 -13.703125 -3.796875 -16.828125 C -2.523438 -18.515625 -1.03125 -20.265625 0.6875 -22.078125 C 2.414062 -23.890625 4.210938 -25.640625 6.078125 -27.328125 C 7.503906 -28.585938 9.378906 -30.039062 11.703125 -31.6875 C 14.023438 -33.332031 16.515625 -34.929688 19.171875 -36.484375 C 21.828125 -38.046875 24.460938 -39.375 27.078125 -40.46875 C 29.691406 -41.570312 32.09375 -42.226562 34.28125 -42.4375 C 36.476562 -42.644531 38.207031 -42.203125 39.46875 -41.109375 C 40.8125 -40.179688 40.515625 -38.203125 38.578125 -35.171875 C 37.734375 -33.816406 36.722656 -32.378906 35.546875 -30.859375 C 34.367188 -29.347656 33.101562 -27.875 31.75 -26.4375 L 49.328125 -42.5 L 56.171875 -42.5 L 22.265625 -11.515625 C 18.804688 -8.222656 16.953125 -5.566406 16.703125 -3.546875 C 16.273438 -2.023438 16.863281 -1.140625 18.46875 -0.890625 C 20.238281 -0.628906 22.640625 -1.382812 25.671875 -3.15625 C 29.640625 -5.601562 33.5625 -8.425781 37.4375 -11.625 C 41.320312 -14.832031 44.953125 -18 48.328125 -21.125 L 48.703125 -20.625 C 45.328125 -17.582031 41.695312 -14.4375 37.8125 -11.1875 C 33.9375 -7.945312 30.019531 -5.101562 26.0625 -2.65625 Z M 39.09375 -40.859375 C 38.164062 -41.617188 36.6875 -41.617188 34.65625 -40.859375 C 32.632812 -40.097656 30.335938 -38.9375 27.765625 -37.375 C 25.191406 -35.820312 22.640625 -34.113281 20.109375 -32.25 C 17.578125 -30.394531 15.34375 -28.6875 13.40625 -27.125 C 11.46875 -25.570312 10.160156 -24.457031 9.484375 -23.78125 C 7.035156 -21.675781 4.546875 -19.378906 2.015625 -16.890625 C -0.503906 -14.398438 -2.648438 -11.804688 -4.421875 -9.109375 C -5.015625 -8.347656 -5.601562 -7.394531 -6.1875 -6.25 C -6.78125 -5.113281 -6.972656 -4.101562 -6.765625 -3.21875 C -6.554688 -2.332031 -5.648438 -1.9375 -4.046875 -2.03125 C -2.953125 -2.113281 -1.476562 -2.578125 0.375 -3.421875 C 4.09375 -5.015625 7.929688 -7.265625 11.890625 -10.171875 C 15.859375 -13.085938 19.359375 -15.851562 22.390625 -18.46875 C 24.078125 -19.90625 25.929688 -21.59375 27.953125 -23.53125 C 29.984375 -25.46875 31.925781 -27.46875 33.78125 -29.53125 C 35.632812 -31.601562 37.109375 -33.609375 38.203125 -35.546875 C 38.878906 -36.722656 39.320312 -37.796875 39.53125 -38.765625 C 39.738281 -39.742188 39.59375 -40.441406 39.09375 -40.859375 Z M 39.09375 -40.859375 "/></g></g></g><g fill="#000000" fill-opacity="1"><g transform="translate(648.401061, 197.233241)"><g><path d="M 61.609375 -21.125 L 61.984375 -20.625 C 58.609375 -17.582031 54.976562 -14.4375 51.09375 -11.1875 C 47.21875 -7.945312 43.300781 -5.101562 39.34375 -2.65625 C 38.070312 -1.894531 36.570312 -1.195312 34.84375 -0.5625 C 33.113281 0.0625 31.535156 0.207031 30.109375 -0.125 C 27.742188 -0.800781 26.6875 -2.445312 26.9375 -5.0625 C 27.195312 -6.75 28.019531 -8.707031 29.40625 -10.9375 C 30.800781 -13.175781 32.972656 -15.601562 35.921875 -18.21875 L 49.84375 -31 C 51.613281 -32.675781 52.960938 -34.191406 53.890625 -35.546875 C 54.816406 -36.898438 55.363281 -38.039062 55.53125 -38.96875 C 55.695312 -40.644531 55.066406 -41.53125 53.640625 -41.625 C 51.953125 -42.039062 49.546875 -41.238281 46.421875 -39.21875 C 43.472656 -37.445312 40.5 -35.398438 37.5 -33.078125 C 34.507812 -30.753906 31.625 -28.414062 28.84375 -26.0625 C 28.082031 -25.21875 27.257812 -24.332031 26.375 -23.40625 C 25.488281 -22.476562 24.539062 -21.550781 23.53125 -20.625 L 1.015625 -0.125 L -6.328125 -0.125 L 21.125 -25.046875 C 24.664062 -28.253906 27.40625 -31.035156 29.34375 -33.390625 C 31.28125 -35.753906 32.503906 -37.65625 33.015625 -39.09375 C 33.347656 -40.351562 33.238281 -41.171875 32.6875 -41.546875 C 32.144531 -41.929688 31.285156 -42.039062 30.109375 -41.875 C 28.335938 -41.445312 25.867188 -40.304688 22.703125 -38.453125 C 19.546875 -36.597656 15.859375 -33.859375 11.640625 -30.234375 L 0.375 -20.625 L 0 -21.125 L 11.265625 -30.734375 C 12.691406 -31.921875 14.585938 -33.398438 16.953125 -35.171875 C 19.316406 -36.941406 21.828125 -38.5625 24.484375 -40.03125 C 27.140625 -41.507812 29.476562 -42.332031 31.5 -42.5 C 33.1875 -42.664062 34.34375 -42.304688 34.96875 -41.421875 C 35.601562 -40.535156 35.796875 -39.253906 35.546875 -37.578125 C 35.035156 -35.046875 33.429688 -31.96875 30.734375 -28.34375 C 33.179688 -30.445312 35.710938 -32.488281 38.328125 -34.46875 C 40.941406 -36.445312 43.554688 -38.238281 46.171875 -39.84375 C 47.429688 -40.601562 48.882812 -41.300781 50.53125 -41.9375 C 52.175781 -42.570312 53.757812 -42.71875 55.28125 -42.375 C 57.644531 -41.695312 58.738281 -40.050781 58.5625 -37.4375 C 58.3125 -35.84375 57.488281 -33.925781 56.09375 -31.6875 C 54.707031 -29.457031 52.5 -26.988281 49.46875 -24.28125 L 35.546875 -11.515625 C 32.085938 -8.222656 30.234375 -5.566406 29.984375 -3.546875 C 29.722656 -2.023438 30.351562 -1.140625 31.875 -0.890625 C 33.644531 -0.628906 36.007812 -1.382812 38.96875 -3.15625 C 42.925781 -5.601562 46.84375 -8.425781 50.71875 -11.625 C 54.601562 -14.832031 58.234375 -18 61.609375 -21.125 Z M 61.609375 -21.125 "/></g></g></g><g fill="#000000" fill-opacity="1"><g transform="translate(710.000718, 197.233241)"><g><path d="M 30.734375 -21.125 L 31.125 -20.625 C 29.351562 -19.019531 27.242188 -17.222656 24.796875 -15.234375 C 22.347656 -13.253906 19.710938 -11.296875 16.890625 -9.359375 C 14.066406 -7.421875 11.28125 -5.773438 8.53125 -4.421875 C 5.789062 -3.078125 3.242188 -2.234375 0.890625 -1.890625 C -2.234375 -1.390625 -4.46875 -1.8125 -5.8125 -3.15625 C -7.164062 -4.507812 -7.460938 -6.617188 -6.703125 -9.484375 C -6.203125 -11.679688 -5.148438 -14.039062 -3.546875 -16.5625 C -1.941406 -19.09375 0.0820312 -21.539062 2.53125 -23.90625 C 5.988281 -27.28125 10.054688 -30.523438 14.734375 -33.640625 C 19.421875 -36.765625 23.957031 -39.171875 28.34375 -40.859375 C 29.269531 -41.109375 30.46875 -41.441406 31.9375 -41.859375 C 33.414062 -42.285156 34.867188 -42.5 36.296875 -42.5 C 37.734375 -42.5 38.789062 -42.035156 39.46875 -41.109375 C 40.144531 -40.265625 40.226562 -39.253906 39.71875 -38.078125 C 39.21875 -36.898438 38.523438 -35.800781 37.640625 -34.78125 C 36.753906 -33.769531 36.015625 -33.015625 35.421875 -32.515625 C 36.179688 -32.085938 36.601562 -31.75 36.6875 -31.5 L 36.4375 -31.125 C 36.257812 -31.289062 36.046875 -31.457031 35.796875 -31.625 C 35.546875 -31.789062 35.25 -31.957031 34.90625 -32.125 C 33.8125 -31.195312 32.59375 -30.484375 31.25 -29.984375 C 29.050781 -29.054688 27.53125 -28.925781 26.6875 -29.59375 C 25.84375 -30.269531 26.304688 -31.113281 28.078125 -32.125 C 30.191406 -33.144531 32.382812 -33.316406 34.65625 -32.640625 C 35.332031 -33.140625 36.113281 -33.875 37 -34.84375 C 37.882812 -35.820312 38.597656 -36.878906 39.140625 -38.015625 C 39.691406 -39.148438 39.632812 -40.097656 38.96875 -40.859375 C 38.375 -41.703125 37.316406 -41.953125 35.796875 -41.609375 C 34.273438 -41.273438 32.628906 -40.625 30.859375 -39.65625 C 29.085938 -38.6875 27.441406 -37.71875 25.921875 -36.75 C 24.410156 -35.78125 23.359375 -35.082031 22.765625 -34.65625 C 20.234375 -32.882812 17.597656 -30.859375 14.859375 -28.578125 C 12.117188 -26.304688 9.523438 -23.988281 7.078125 -21.625 C 4.460938 -19.007812 2.25 -16.476562 0.4375 -14.03125 C -1.375 -11.59375 -2.613281 -9.40625 -3.28125 -7.46875 C -3.875 -5.695312 -3.894531 -4.320312 -3.34375 -3.34375 C -2.800781 -2.375 -1.476562 -2.0625 0.625 -2.40625 C 3.914062 -2.90625 7.4375 -4.226562 11.1875 -6.375 C 14.945312 -8.53125 18.554688 -10.976562 22.015625 -13.71875 C 25.472656 -16.46875 28.378906 -18.9375 30.734375 -21.125 Z M 34.15625 -32.25 C 32.050781 -32.84375 30.113281 -32.632812 28.34375 -31.625 C 27.238281 -30.945312 27.066406 -30.4375 27.828125 -30.09375 C 28.585938 -29.757812 29.6875 -29.890625 31.125 -30.484375 C 31.625 -30.734375 32.144531 -31.003906 32.6875 -31.296875 C 33.238281 -31.597656 33.726562 -31.914062 34.15625 -32.25 Z M 34.15625 -32.25 "/></g></g></g><g fill="#000000" fill-opacity="1"><g transform="translate(740.737283, 197.233241)"><g><path d="M 22.390625 -21.125 L 22.765625 -20.625 C 19.390625 -17.582031 15.765625 -14.4375 11.890625 -11.1875 C 8.015625 -7.945312 4.09375 -5.101562 0.125 -2.65625 C -1.132812 -1.894531 -2.609375 -1.195312 -4.296875 -0.5625 C -5.984375 0.0625 -7.546875 0.207031 -8.984375 -0.125 C -11.347656 -0.882812 -12.398438 -2.53125 -12.140625 -5.0625 C -11.972656 -6.75 -11.171875 -8.707031 -9.734375 -10.9375 C -8.304688 -13.175781 -6.15625 -15.601562 -3.28125 -18.21875 L 23.53125 -42.5 L 30.484375 -42.5 L -3.546875 -11.515625 C -5.398438 -9.828125 -6.769531 -8.304688 -7.65625 -6.953125 C -8.539062 -5.609375 -9.066406 -4.472656 -9.234375 -3.546875 C -9.398438 -2.023438 -8.769531 -1.140625 -7.34375 -0.890625 C -5.476562 -0.628906 -3.03125 -1.382812 0 -3.15625 C 3.789062 -5.601562 7.625 -8.425781 11.5 -11.625 C 15.382812 -14.832031 19.015625 -18 22.390625 -21.125 Z M 47.6875 -62.875 C 48.195312 -62.363281 48.132812 -61.429688 47.5 -60.078125 C 46.863281 -58.734375 45.875 -57.390625 44.53125 -56.046875 C 43.175781 -54.691406 41.820312 -53.71875 40.46875 -53.125 C 39.125 -52.539062 38.203125 -52.414062 37.703125 -52.75 C 37.191406 -53.257812 37.273438 -54.1875 37.953125 -55.53125 C 38.628906 -56.882812 39.640625 -58.234375 40.984375 -59.578125 C 42.335938 -61.015625 43.664062 -62.046875 44.96875 -62.671875 C 46.28125 -63.304688 47.1875 -63.375 47.6875 -62.875 Z M 47.6875 -62.875 "/></g></g></g><g fill="#000000" fill-opacity="1"><g transform="translate(763.125657, 197.233241)"><g><path d="M 37.0625 -21.125 L 37.4375 -20.625 C 33.644531 -17.25 30.441406 -14.90625 27.828125 -13.59375 C 25.210938 -12.289062 23.144531 -11.679688 21.625 -11.765625 C 20.195312 -11.765625 19.1875 -12.269531 18.59375 -13.28125 L 18.21875 -14.296875 C 15.519531 -12.097656 12.609375 -9.945312 9.484375 -7.84375 C 6.367188 -5.738281 3.460938 -4.09375 0.765625 -2.90625 C 0.171875 -2.65625 -0.394531 -2.445312 -0.9375 -2.28125 C -1.488281 -2.113281 -2.019531 -1.984375 -2.53125 -1.890625 C -5.3125 -1.046875 -7.3125 -1.191406 -8.53125 -2.328125 C -9.757812 -3.472656 -9.867188 -5.476562 -8.859375 -8.34375 C -7.847656 -10.957031 -6.117188 -13.785156 -3.671875 -16.828125 C -2.316406 -18.515625 -0.796875 -20.265625 0.890625 -22.078125 C 2.578125 -23.890625 4.390625 -25.640625 6.328125 -27.328125 C 7.753906 -28.585938 9.609375 -30.039062 11.890625 -31.6875 C 14.171875 -33.332031 16.640625 -34.929688 19.296875 -36.484375 C 21.953125 -38.046875 24.585938 -39.375 27.203125 -40.46875 C 29.816406 -41.570312 32.21875 -42.226562 34.40625 -42.4375 C 36.601562 -42.644531 38.375 -42.203125 39.71875 -41.109375 C 40.894531 -40.097656 40.597656 -38.117188 38.828125 -35.171875 C 37.734375 -33.222656 36.257812 -31.21875 34.40625 -29.15625 C 32.550781 -27.09375 30.609375 -25.109375 28.578125 -23.203125 C 26.554688 -21.304688 24.703125 -19.644531 23.015625 -18.21875 L 18.96875 -14.796875 C 18.96875 -14.117188 19.007812 -13.695312 19.09375 -13.53125 C 19.519531 -12.6875 20.363281 -12.265625 21.625 -12.265625 C 23.0625 -12.265625 25.046875 -12.894531 27.578125 -14.15625 C 30.109375 -15.425781 33.269531 -17.75 37.0625 -21.125 Z M 39.34375 -40.859375 C 38.414062 -41.617188 36.914062 -41.617188 34.84375 -40.859375 C 32.78125 -40.097656 30.460938 -38.9375 27.890625 -37.375 C 25.316406 -35.820312 22.765625 -34.113281 20.234375 -32.25 C 17.703125 -30.394531 15.46875 -28.6875 13.53125 -27.125 C 11.59375 -25.570312 10.285156 -24.457031 9.609375 -23.78125 C 7.253906 -21.675781 4.8125 -19.378906 2.28125 -16.890625 C -0.25 -14.398438 -2.484375 -11.804688 -4.421875 -9.109375 C -4.929688 -8.347656 -5.457031 -7.394531 -6 -6.25 C -6.550781 -5.113281 -6.742188 -4.101562 -6.578125 -3.21875 C -6.410156 -2.332031 -5.523438 -1.9375 -3.921875 -2.03125 C -2.828125 -2.113281 -1.394531 -2.578125 0.375 -3.421875 C 3.332031 -4.597656 6.347656 -6.257812 9.421875 -8.40625 C 12.503906 -10.5625 15.4375 -12.691406 18.21875 -14.796875 C 18.21875 -16.066406 18.660156 -17.207031 19.546875 -18.21875 C 20.429688 -19.226562 21.546875 -20.09375 22.890625 -20.8125 C 24.242188 -21.53125 25.46875 -21.972656 26.5625 -22.140625 L 26.5625 -21.890625 C 28.757812 -23.910156 30.929688 -26.140625 33.078125 -28.578125 C 35.234375 -31.023438 36.984375 -33.347656 38.328125 -35.546875 C 39.085938 -36.722656 39.570312 -37.796875 39.78125 -38.765625 C 39.988281 -39.742188 39.84375 -40.441406 39.34375 -40.859375 Z M 39.34375 -40.859375 "/></g></g></g><g fill="#000000" fill-opacity="1"><g transform="translate(800.18663, 197.233241)"><g><path d="M 28.71875 -36.4375 L 32.640625 -38.328125 L 80.203125 -37.828125 L 76.15625 -36.046875 Z M 28.71875 -36.4375 "/></g></g></g><g fill="#000000" fill-opacity="1"><g transform="translate(266.03125, 373.938235)"><g><path d="M 171.65625 -22.890625 L 172.296875 -23.53125 L 181.140625 -36.5625 C 183.585938 -40.101562 186.054688 -43.726562 188.546875 -47.4375 C 191.035156 -51.144531 193.585938 -54.8125 196.203125 -58.4375 C 202.191406 -67.382812 208.285156 -76.21875 214.484375 -84.9375 C 220.679688 -93.664062 226.644531 -101.910156 232.375 -109.671875 C 223.269531 -102.585938 214.097656 -95.628906 204.859375 -88.796875 C 195.628906 -81.972656 186.375 -75.101562 177.09375 -68.1875 C 172.125 -61.863281 166.894531 -55.75 161.40625 -49.84375 C 155.925781 -43.9375 150.445312 -38.453125 144.96875 -33.390625 C 139.488281 -28.335938 134.257812 -23.828125 129.28125 -19.859375 C 128.019531 -18.929688 126.269531 -17.625 124.03125 -15.9375 C 121.800781 -14.25 119.359375 -12.519531 116.703125 -10.75 C 114.046875 -8.976562 111.515625 -7.476562 109.109375 -6.25 C 106.703125 -5.03125 104.695312 -4.378906 103.09375 -4.296875 C 102.414062 -4.296875 101.800781 -4.460938 101.25 -4.796875 C 100.707031 -5.140625 100.566406 -5.734375 100.828125 -6.578125 C 101.328125 -8.015625 103.15625 -10.269531 106.3125 -13.34375 C 109.476562 -16.425781 113.71875 -20.113281 119.03125 -24.40625 C 124.34375 -28.707031 130.414062 -33.472656 137.25 -38.703125 C 144.082031 -43.929688 151.335938 -49.457031 159.015625 -55.28125 C 162.804688 -59.75 166.765625 -64.765625 170.890625 -70.328125 C 175.023438 -75.898438 179.050781 -81.828125 182.96875 -88.109375 C 186.894531 -94.390625 190.414062 -100.859375 193.53125 -107.515625 C 196.65625 -114.179688 199.101562 -120.890625 200.875 -127.640625 C 202.644531 -134.390625 203.445312 -141.007812 203.28125 -147.5 C 203.113281 -153.988281 201.679688 -160.144531 198.984375 -165.96875 C 196.796875 -170.769531 193.882812 -174.753906 190.25 -177.921875 C 186.625 -181.085938 182.554688 -183.554688 178.046875 -185.328125 C 173.535156 -187.097656 168.789062 -188.335938 163.8125 -189.046875 C 158.84375 -189.765625 153.910156 -190.125 149.015625 -190.125 C 135.265625 -190.125 122.046875 -188.289062 109.359375 -184.625 C 96.671875 -180.957031 84.675781 -175.914062 73.375 -169.5 C 62.070312 -163.09375 51.59375 -155.734375 41.9375 -147.421875 C 32.28125 -139.117188 23.613281 -130.304688 15.9375 -120.984375 C 8.257812 -111.671875 1.765625 -102.289062 -3.546875 -92.84375 C -7.335938 -86.269531 -10.726562 -79.164062 -13.71875 -71.53125 C -16.71875 -63.90625 -18.597656 -56.253906 -19.359375 -48.578125 C -12.359375 -53.046875 -5.191406 -57.785156 2.140625 -62.796875 C 9.484375 -67.816406 16.863281 -72.898438 24.28125 -78.046875 C 35.164062 -85.554688 45.941406 -92.875 56.609375 -100 C 67.273438 -107.125 77.582031 -113.550781 87.53125 -119.28125 C 97.488281 -125.019531 106.832031 -129.578125 115.5625 -132.953125 C 124.289062 -136.328125 132.195312 -138.015625 139.28125 -138.015625 C 148.132812 -138.015625 154.035156 -135.84375 156.984375 -131.5 C 159.929688 -127.15625 159.59375 -120.9375 155.96875 -112.84375 C 152.851562 -105.664062 147.582031 -97.691406 140.15625 -88.921875 C 135.269531 -83.109375 129.640625 -77.1875 123.265625 -71.15625 C 116.898438 -65.125 110.023438 -59.257812 102.640625 -53.5625 C 95.265625 -47.875 87.613281 -42.539062 79.6875 -37.5625 C 71.757812 -32.59375 63.75 -28.226562 55.65625 -24.46875 C 47.5625 -20.71875 39.613281 -17.789062 31.8125 -15.6875 C 24.007812 -13.582031 16.566406 -12.53125 9.484375 -12.53125 C 1.984375 -12.53125 -4.039062 -14.023438 -8.59375 -17.015625 C -13.15625 -20.003906 -16.34375 -24.15625 -18.15625 -29.46875 C -19.96875 -34.78125 -20.617188 -40.8125 -20.109375 -47.5625 C -29.390625 -41.65625 -38.328125 -36.425781 -46.921875 -31.875 C -55.523438 -27.320312 -63.578125 -23.863281 -71.078125 -21.5 C -78.585938 -19.144531 -85.335938 -18.195312 -91.328125 -18.65625 C -97.316406 -19.125 -102.335938 -21.421875 -106.390625 -25.546875 L -106.515625 -25.8125 C -102.460938 -21.757812 -97.421875 -19.519531 -91.390625 -19.09375 C -85.359375 -18.675781 -78.585938 -19.664062 -71.078125 -22.0625 C -63.578125 -24.46875 -55.503906 -27.945312 -46.859375 -32.5 C -38.222656 -37.0625 -29.222656 -42.296875 -19.859375 -48.203125 C -19.179688 -55.953125 -17.320312 -63.707031 -14.28125 -71.46875 C -11.25 -79.226562 -7.835938 -86.441406 -4.046875 -93.109375 C 1.265625 -102.546875 7.753906 -111.945312 15.421875 -121.3125 C 23.097656 -130.675781 31.785156 -139.507812 41.484375 -147.8125 C 51.191406 -156.125 61.710938 -163.503906 73.046875 -169.953125 C 84.390625 -176.398438 96.445312 -181.476562 109.21875 -185.1875 C 122 -188.90625 135.265625 -190.765625 149.015625 -190.765625 C 154.410156 -190.765625 159.847656 -190.363281 165.328125 -189.5625 C 170.816406 -188.757812 176.046875 -187.34375 181.015625 -185.3125 C 185.992188 -183.289062 190.484375 -180.550781 194.484375 -177.09375 C 198.492188 -173.632812 201.722656 -169.25 204.171875 -163.9375 C 206.953125 -157.957031 208.46875 -151.632812 208.71875 -144.96875 C 208.976562 -138.300781 208.265625 -131.550781 206.578125 -124.71875 C 204.890625 -117.894531 202.566406 -111.191406 199.609375 -104.609375 C 196.660156 -98.035156 193.332031 -91.773438 189.625 -85.828125 C 185.914062 -79.878906 182.203125 -74.503906 178.484375 -69.703125 C 187.847656 -76.703125 197.253906 -83.765625 206.703125 -90.890625 C 216.148438 -98.015625 225.085938 -104.820312 233.515625 -111.3125 C 234.609375 -112.832031 236.296875 -115.085938 238.578125 -118.078125 C 240.859375 -121.078125 243.492188 -124.472656 246.484375 -128.265625 C 249.472656 -132.066406 252.570312 -135.820312 255.78125 -139.53125 C 258.988281 -143.238281 262.128906 -146.566406 265.203125 -149.515625 C 268.285156 -152.472656 271.066406 -154.664062 273.546875 -156.09375 C 276.035156 -157.53125 277.957031 -157.742188 279.3125 -156.734375 C 280.914062 -155.554688 280.453125 -153.320312 277.921875 -150.03125 C 275.472656 -146.488281 271.085938 -141.910156 264.765625 -136.296875 C 258.441406 -130.691406 250.9375 -124.429688 242.25 -117.515625 C 235.164062 -107.566406 228.25 -97.507812 221.5 -87.34375 C 214.75 -77.1875 207.960938 -67.085938 201.140625 -57.046875 L 188.359375 -38.703125 C 196.960938 -46.628906 206.023438 -54.578125 215.546875 -62.546875 C 225.078125 -70.523438 234.925781 -78.242188 245.09375 -85.703125 C 255.257812 -93.171875 265.523438 -100.128906 275.890625 -106.578125 C 286.265625 -113.023438 296.53125 -118.648438 306.6875 -123.453125 C 316.851562 -128.265625 326.765625 -132.039062 336.421875 -134.78125 C 346.078125 -137.519531 355.25 -138.890625 363.9375 -138.890625 C 375.238281 -138.890625 384.492188 -137.726562 391.703125 -135.40625 C 398.910156 -133.09375 404.328125 -129.992188 407.953125 -126.109375 C 411.585938 -122.234375 413.570312 -118 413.90625 -113.40625 C 414.238281 -108.8125 413.140625 -104.210938 410.609375 -99.609375 C 408.085938 -95.015625 404.273438 -90.78125 399.171875 -86.90625 C 394.066406 -83.03125 387.890625 -79.929688 380.640625 -77.609375 C 373.390625 -75.285156 365.25 -74.125 356.21875 -74.125 C 347.113281 -74.125 339.710938 -74.882812 334.015625 -76.40625 C 328.328125 -77.925781 324.15625 -79.882812 321.5 -82.28125 C 318.84375 -84.6875 317.554688 -87.257812 317.640625 -90 C 317.722656 -92.738281 319.007812 -95.3125 321.5 -97.71875 C 323.988281 -100.125 327.53125 -102.082031 332.125 -103.59375 C 336.71875 -105.113281 342.132812 -105.875 348.375 -105.875 C 355.71875 -105.875 362.359375 -104.734375 368.296875 -102.453125 C 374.242188 -100.179688 379.492188 -95.96875 384.046875 -89.8125 L 383.921875 -89.8125 C 379.453125 -95.800781 374.242188 -99.890625 368.296875 -102.078125 C 362.359375 -104.273438 355.71875 -105.375 348.375 -105.375 C 342.21875 -105.375 336.882812 -104.632812 332.375 -103.15625 C 327.863281 -101.6875 324.40625 -99.789062 322 -97.46875 C 319.601562 -95.144531 318.359375 -92.65625 318.265625 -90 C 318.179688 -87.34375 319.445312 -84.851562 322.0625 -82.53125 C 324.675781 -80.21875 328.785156 -78.320312 334.390625 -76.84375 C 340.003906 -75.375 347.28125 -74.640625 356.21875 -74.640625 C 365.070312 -74.640625 373.082031 -75.796875 380.25 -78.109375 C 387.425781 -80.429688 393.539062 -83.46875 398.59375 -87.21875 C 403.65625 -90.96875 407.453125 -95.117188 409.984375 -99.671875 C 412.515625 -104.234375 413.628906 -108.789062 413.328125 -113.34375 C 413.035156 -117.894531 411.097656 -122.046875 407.515625 -125.796875 C 403.929688 -129.554688 398.554688 -132.59375 391.390625 -134.90625 C 384.222656 -137.226562 375.070312 -138.390625 363.9375 -138.390625 C 355.164062 -138.390625 345.910156 -137 336.171875 -134.21875 C 326.429688 -131.4375 316.394531 -127.578125 306.0625 -122.640625 C 295.726562 -117.703125 285.332031 -111.941406 274.875 -105.359375 C 264.425781 -98.785156 254.078125 -91.703125 243.828125 -84.109375 C 233.578125 -76.523438 223.664062 -68.707031 214.09375 -60.65625 C 204.53125 -52.601562 195.445312 -44.613281 186.84375 -36.6875 C 185.914062 -35.332031 184.269531 -32.988281 181.90625 -29.65625 C 179.539062 -26.332031 176.710938 -22.410156 173.421875 -17.890625 C 170.140625 -13.378906 166.617188 -8.632812 162.859375 -3.65625 C 159.109375 1.3125 155.335938 6.15625 151.546875 10.875 C 147.753906 15.601562 144.148438 19.863281 140.734375 23.65625 C 137.316406 27.445312 134.300781 30.394531 131.6875 32.5 C 129.070312 34.613281 127.132812 35.503906 125.875 35.171875 C 125.195312 34.910156 124.816406 34.570312 124.734375 34.15625 C 124.554688 32.800781 125.539062 30.414062 127.6875 27 C 129.84375 23.59375 132.988281 19.398438 137.125 14.421875 C 141.175781 9.359375 146.148438 3.644531 152.046875 -2.71875 C 157.953125 -9.082031 164.488281 -15.804688 171.65625 -22.890625 Z M -19.609375 -47.9375 C -20.109375 -41.195312 -19.472656 -35.191406 -17.703125 -29.921875 C -15.929688 -24.648438 -12.8125 -20.515625 -8.34375 -17.515625 C -3.875 -14.523438 2.066406 -13.03125 9.484375 -13.03125 C 16.398438 -13.03125 23.671875 -14.101562 31.296875 -16.25 C 38.929688 -18.40625 46.710938 -21.398438 54.640625 -25.234375 C 62.566406 -29.078125 70.410156 -33.523438 78.171875 -38.578125 C 85.929688 -43.640625 93.4375 -49.054688 100.6875 -54.828125 C 107.945312 -60.609375 114.695312 -66.554688 120.9375 -72.671875 C 127.175781 -78.785156 132.695312 -84.753906 137.5 -90.578125 C 140.957031 -94.796875 143.972656 -98.925781 146.546875 -102.96875 C 149.117188 -107.019531 151.207031 -110.773438 152.8125 -114.234375 C 154.832031 -118.867188 155.78125 -122.914062 155.65625 -126.375 C 155.53125 -129.832031 154.160156 -132.53125 151.546875 -134.46875 C 148.929688 -136.40625 144.84375 -137.375 139.28125 -137.375 C 132.28125 -137.375 124.414062 -135.6875 115.6875 -132.3125 C 106.957031 -128.945312 97.613281 -124.394531 87.65625 -118.65625 C 77.707031 -112.925781 67.421875 -106.515625 56.796875 -99.421875 C 46.171875 -92.335938 35.460938 -85.085938 24.671875 -77.671875 C 17.242188 -72.523438 9.796875 -67.398438 2.328125 -62.296875 C -5.128906 -57.191406 -12.441406 -52.40625 -19.609375 -47.9375 Z M 157.5 -53.390625 C 149.820312 -47.648438 142.628906 -42.207031 135.921875 -37.0625 C 129.222656 -31.914062 123.300781 -27.253906 118.15625 -23.078125 C 113.007812 -18.910156 108.957031 -15.367188 106 -12.453125 C 103.050781 -9.546875 101.453125 -7.460938 101.203125 -6.203125 C 101.117188 -5.691406 101.285156 -5.332031 101.703125 -5.125 C 102.128906 -4.914062 102.550781 -4.8125 102.96875 -4.8125 C 104.238281 -4.894531 105.84375 -5.503906 107.78125 -6.640625 C 109.71875 -7.773438 111.738281 -9.125 113.84375 -10.6875 C 115.957031 -12.25 117.898438 -13.765625 119.671875 -15.234375 C 121.441406 -16.710938 122.789062 -17.832031 123.71875 -18.59375 C 128.695312 -22.976562 134.09375 -28.144531 139.90625 -34.09375 C 145.726562 -40.039062 151.59375 -46.472656 157.5 -53.390625 Z M 126 34.65625 C 127.007812 34.914062 128.484375 34.179688 130.421875 32.453125 C 132.359375 30.722656 134.59375 28.359375 137.125 25.359375 C 139.65625 22.367188 142.332031 18.992188 145.15625 15.234375 C 147.976562 11.484375 150.78125 7.664062 153.5625 3.78125 C 156.351562 -0.09375 158.925781 -3.753906 161.28125 -7.203125 C 163.644531 -10.660156 165.671875 -13.65625 167.359375 -16.1875 C 169.046875 -18.71875 170.1875 -20.40625 170.78125 -21.25 C 163.863281 -14.414062 157.578125 -7.921875 151.921875 -1.765625 C 146.273438 4.390625 141.46875 9.867188 137.5 14.671875 C 133.375 19.734375 130.253906 23.925781 128.140625 27.25 C 126.035156 30.582031 125.109375 32.800781 125.359375 33.90625 C 125.359375 34.40625 125.570312 34.65625 126 34.65625 Z M 243.265625 -119.03125 C 251.609375 -125.695312 258.816406 -131.726562 264.890625 -137.125 C 270.960938 -142.519531 275.222656 -146.90625 277.671875 -150.28125 C 279.773438 -153.570312 280.238281 -155.554688 279.0625 -156.234375 C 277.875 -157.078125 276.269531 -156.882812 274.25 -155.65625 C 272.226562 -154.4375 269.992188 -152.601562 267.546875 -150.15625 C 265.097656 -147.707031 262.609375 -144.921875 260.078125 -141.796875 C 257.546875 -138.679688 255.140625 -135.5625 252.859375 -132.4375 C 250.585938 -129.320312 248.609375 -126.5625 246.921875 -124.15625 C 245.234375 -121.75 244.015625 -120.039062 243.265625 -119.03125 Z M 243.265625 -119.03125 "/></g></g></g><g fill="#000000" fill-opacity="1"><g transform="translate(480.554801, 373.938235)"><g><path d="M 37.0625 -21.125 L 37.4375 -20.625 C 33.644531 -17.25 30.441406 -14.90625 27.828125 -13.59375 C 25.210938 -12.289062 23.144531 -11.679688 21.625 -11.765625 C 20.195312 -11.765625 19.1875 -12.269531 18.59375 -13.28125 L 18.21875 -14.296875 C 15.519531 -12.097656 12.609375 -9.945312 9.484375 -7.84375 C 6.367188 -5.738281 3.460938 -4.09375 0.765625 -2.90625 C 0.171875 -2.65625 -0.394531 -2.445312 -0.9375 -2.28125 C -1.488281 -2.113281 -2.019531 -1.984375 -2.53125 -1.890625 C -5.3125 -1.046875 -7.3125 -1.191406 -8.53125 -2.328125 C -9.757812 -3.472656 -9.867188 -5.476562 -8.859375 -8.34375 C -7.847656 -10.957031 -6.117188 -13.785156 -3.671875 -16.828125 C -2.316406 -18.515625 -0.796875 -20.265625 0.890625 -22.078125 C 2.578125 -23.890625 4.390625 -25.640625 6.328125 -27.328125 C 7.753906 -28.585938 9.609375 -30.039062 11.890625 -31.6875 C 14.171875 -33.332031 16.640625 -34.929688 19.296875 -36.484375 C 21.953125 -38.046875 24.585938 -39.375 27.203125 -40.46875 C 29.816406 -41.570312 32.21875 -42.226562 34.40625 -42.4375 C 36.601562 -42.644531 38.375 -42.203125 39.71875 -41.109375 C 40.894531 -40.097656 40.597656 -38.117188 38.828125 -35.171875 C 37.734375 -33.222656 36.257812 -31.21875 34.40625 -29.15625 C 32.550781 -27.09375 30.609375 -25.109375 28.578125 -23.203125 C 26.554688 -21.304688 24.703125 -19.644531 23.015625 -18.21875 L 18.96875 -14.796875 C 18.96875 -14.117188 19.007812 -13.695312 19.09375 -13.53125 C 19.519531 -12.6875 20.363281 -12.265625 21.625 -12.265625 C 23.0625 -12.265625 25.046875 -12.894531 27.578125 -14.15625 C 30.109375 -15.425781 33.269531 -17.75 37.0625 -21.125 Z M 39.34375 -40.859375 C 38.414062 -41.617188 36.914062 -41.617188 34.84375 -40.859375 C 32.78125 -40.097656 30.460938 -38.9375 27.890625 -37.375 C 25.316406 -35.820312 22.765625 -34.113281 20.234375 -32.25 C 17.703125 -30.394531 15.46875 -28.6875 13.53125 -27.125 C 11.59375 -25.570312 10.285156 -24.457031 9.609375 -23.78125 C 7.253906 -21.675781 4.8125 -19.378906 2.28125 -16.890625 C -0.25 -14.398438 -2.484375 -11.804688 -4.421875 -9.109375 C -4.929688 -8.347656 -5.457031 -7.394531 -6 -6.25 C -6.550781 -5.113281 -6.742188 -4.101562 -6.578125 -3.21875 C -6.410156 -2.332031 -5.523438 -1.9375 -3.921875 -2.03125 C -2.828125 -2.113281 -1.394531 -2.578125 0.375 -3.421875 C 3.332031 -4.597656 6.347656 -6.257812 9.421875 -8.40625 C 12.503906 -10.5625 15.4375 -12.691406 18.21875 -14.796875 C 18.21875 -16.066406 18.660156 -17.207031 19.546875 -18.21875 C 20.429688 -19.226562 21.546875 -20.09375 22.890625 -20.8125 C 24.242188 -21.53125 25.46875 -21.972656 26.5625 -22.140625 L 26.5625 -21.890625 C 28.757812 -23.910156 30.929688 -26.140625 33.078125 -28.578125 C 35.234375 -31.023438 36.984375 -33.347656 38.328125 -35.546875 C 39.085938 -36.722656 39.570312 -37.796875 39.78125 -38.765625 C 39.988281 -39.742188 39.84375 -40.441406 39.34375 -40.859375 Z M 39.34375 -40.859375 "/></g></g></g><g fill="#000000" fill-opacity="1"><g transform="translate(517.615774, 373.938235)"><g><path d="M 22.390625 -21.125 L 22.765625 -20.625 C 19.390625 -17.582031 15.765625 -14.4375 11.890625 -11.1875 C 8.015625 -7.945312 4.09375 -5.101562 0.125 -2.65625 C -1.132812 -1.894531 -2.609375 -1.195312 -4.296875 -0.5625 C -5.984375 0.0625 -7.585938 0.207031 -9.109375 -0.125 C -11.554688 -0.882812 -12.566406 -2.53125 -12.140625 -5.0625 C -11.972656 -6.75 -11.171875 -8.707031 -9.734375 -10.9375 C -8.304688 -13.175781 -6.15625 -15.601562 -3.28125 -18.21875 L 65.40625 -80.453125 L 72.234375 -80.453125 L -3.421875 -11.515625 C -5.273438 -9.828125 -6.664062 -8.304688 -7.59375 -6.953125 C -8.519531 -5.609375 -9.066406 -4.472656 -9.234375 -3.546875 C -9.484375 -2.023438 -8.851562 -1.140625 -7.34375 -0.890625 C -5.570312 -0.628906 -3.164062 -1.382812 -0.125 -3.15625 C 3.75 -5.601562 7.625 -8.425781 11.5 -11.625 C 15.382812 -14.832031 19.015625 -18 22.390625 -21.125 Z M 22.390625 -21.125 "/></g></g></g><g fill="#000000" fill-opacity="1"><g transform="translate(540.004148, 373.938235)"><g><path d="M 15.4375 -47.4375 L 16.953125 -48.828125 L 30.484375 -48.828125 L 42.5 -59.578125 L 49.328125 -59.578125 L 37.4375 -48.828125 L 51.359375 -48.828125 L 49.84375 -47.4375 L 35.921875 -47.4375 L -3.546875 -11.515625 C -5.398438 -9.828125 -6.769531 -8.304688 -7.65625 -6.953125 C -8.539062 -5.609375 -9.066406 -4.472656 -9.234375 -3.546875 C -9.484375 -2.023438 -8.894531 -1.140625 -7.46875 -0.890625 C -5.78125 -0.628906 -3.332031 -1.382812 -0.125 -3.15625 C 3.832031 -5.601562 7.707031 -8.425781 11.5 -11.625 C 15.300781 -14.832031 18.972656 -18 22.515625 -21.125 L 22.890625 -20.625 C 19.429688 -17.582031 15.742188 -14.4375 11.828125 -11.1875 C 7.910156 -7.945312 4.007812 -5.101562 0.125 -2.65625 C -1.132812 -1.894531 -2.609375 -1.195312 -4.296875 -0.5625 C -5.984375 0.0625 -7.628906 0.207031 -9.234375 -0.125 C -11.679688 -0.96875 -12.691406 -2.613281 -12.265625 -5.0625 C -12.097656 -6.75 -11.296875 -8.707031 -9.859375 -10.9375 C -8.429688 -13.175781 -6.238281 -15.601562 -3.28125 -18.21875 L 28.96875 -47.4375 Z M 15.4375 -47.4375 "/></g></g></g><g fill="#000000" fill-opacity="1"><g transform="translate(562.518994, 373.938235)"><g><path d="M 32.765625 -30.484375 C 30.910156 -29.304688 28.945312 -28.335938 26.875 -27.578125 C 24.8125 -26.816406 22.875 -26.351562 21.0625 -26.1875 C 19.25 -26.019531 17.859375 -26.1875 16.890625 -26.6875 C 15.921875 -27.195312 15.601562 -28.125 15.9375 -29.46875 C 14.414062 -28.207031 12.9375 -26.921875 11.5 -25.609375 C 10.070312 -24.304688 8.640625 -22.976562 7.203125 -21.625 C 4.585938 -19.007812 2.375 -16.476562 0.5625 -14.03125 C -1.25 -11.59375 -2.488281 -9.40625 -3.15625 -7.46875 C -3.832031 -5.695312 -3.875 -4.320312 -3.28125 -3.34375 C -2.695312 -2.375 -1.347656 -2.0625 0.765625 -2.40625 C 3.117188 -2.820312 5.664062 -3.679688 8.40625 -4.984375 C 11.15625 -6.296875 13.921875 -7.898438 16.703125 -9.796875 C 19.484375 -11.703125 22.09375 -13.644531 24.53125 -15.625 C 26.976562 -17.601562 29.085938 -19.4375 30.859375 -21.125 L 31.25 -20.625 C 29.476562 -19.019531 27.367188 -17.222656 24.921875 -15.234375 C 22.472656 -13.253906 19.835938 -11.296875 17.015625 -9.359375 C 14.191406 -7.421875 11.382812 -5.773438 8.59375 -4.421875 C 5.8125 -3.078125 3.242188 -2.234375 0.890625 -1.890625 C -2.148438 -1.390625 -4.34375 -1.8125 -5.6875 -3.15625 C -7.039062 -4.507812 -7.378906 -6.617188 -6.703125 -9.484375 C -6.203125 -11.679688 -5.128906 -14.039062 -3.484375 -16.5625 C -1.835938 -19.09375 0.207031 -21.539062 2.65625 -23.90625 C 6.113281 -27.28125 10.160156 -30.523438 14.796875 -33.640625 C 19.441406 -36.765625 24 -39.171875 28.46875 -40.859375 C 29.3125 -41.109375 30.445312 -41.441406 31.875 -41.859375 C 33.3125 -42.285156 34.742188 -42.5 36.171875 -42.5 C 37.609375 -42.5 38.664062 -42.035156 39.34375 -41.109375 C 40.019531 -40.179688 40.082031 -39.0625 39.53125 -37.75 C 38.976562 -36.445312 38.09375 -35.140625 36.875 -33.828125 C 35.65625 -32.523438 34.285156 -31.410156 32.765625 -30.484375 Z M 39.09375 -40.859375 C 38.414062 -41.703125 37.316406 -41.953125 35.796875 -41.609375 C 34.273438 -41.273438 32.628906 -40.625 30.859375 -39.65625 C 29.085938 -38.6875 27.460938 -37.71875 25.984375 -36.75 C 24.515625 -35.78125 23.484375 -35.082031 22.890625 -34.65625 C 21.878906 -33.988281 20.867188 -33.273438 19.859375 -32.515625 C 18.847656 -31.753906 17.835938 -30.992188 16.828125 -30.234375 C 16.234375 -28.628906 16.71875 -27.703125 18.28125 -27.453125 C 19.84375 -27.203125 21.929688 -27.492188 24.546875 -28.328125 C 27.160156 -29.171875 29.644531 -30.394531 32 -32 C 33.4375 -32.84375 34.765625 -33.832031 35.984375 -34.96875 C 37.210938 -36.113281 38.140625 -37.234375 38.765625 -38.328125 C 39.398438 -39.421875 39.507812 -40.265625 39.09375 -40.859375 Z M 39.09375 -40.859375 "/></g></g></g><g fill="#000000" fill-opacity="1"><g transform="translate(593.38205, 373.938235)"><g><path d="M 33.65625 -21.125 L 34.03125 -20.625 C 31.414062 -18.257812 28.648438 -15.957031 25.734375 -13.71875 C 22.828125 -11.488281 20.109375 -9.445312 17.578125 -7.59375 C 16.484375 -6.832031 15.132812 -5.921875 13.53125 -4.859375 C 11.925781 -3.804688 10.257812 -2.898438 8.53125 -2.140625 C 6.8125 -1.390625 5.234375 -1.015625 3.796875 -1.015625 C 1.597656 -1.015625 0.1875 -1.726562 -0.4375 -3.15625 C -1.070312 -4.59375 -1.007812 -6.238281 -0.25 -8.09375 C 0.25 -9.53125 1.21875 -11.15625 2.65625 -12.96875 C 4.09375 -14.78125 6.117188 -16.867188 8.734375 -19.234375 C 11.265625 -21.503906 13.347656 -23.460938 14.984375 -25.109375 C 16.628906 -26.753906 17.957031 -28.378906 18.96875 -29.984375 C 19.988281 -31.585938 20.789062 -33.460938 21.375 -35.609375 C 21.96875 -37.753906 22.472656 -40.515625 22.890625 -43.890625 C 20.953125 -41.617188 18.65625 -38.984375 16 -35.984375 C 13.34375 -32.992188 10.644531 -30.128906 7.90625 -27.390625 C 5.164062 -24.648438 2.65625 -22.394531 0.375 -20.625 L 0 -21.125 C 2.28125 -22.894531 4.832031 -25.171875 7.65625 -27.953125 C 10.476562 -30.734375 13.257812 -33.660156 16 -36.734375 C 18.738281 -39.816406 21.078125 -42.539062 23.015625 -44.90625 C 23.109375 -45.414062 23.175781 -45.921875 23.21875 -46.421875 C 23.257812 -46.929688 23.320312 -47.4375 23.40625 -47.9375 C 23.738281 -50.21875 24.347656 -51.863281 25.234375 -52.875 C 26.117188 -53.882812 26.878906 -54.285156 27.515625 -54.078125 C 28.148438 -53.867188 28.234375 -53.003906 27.765625 -51.484375 C 27.304688 -49.960938 25.894531 -47.726562 23.53125 -44.78125 C 23.28125 -41.238281 23.15625 -38.304688 23.15625 -35.984375 C 23.15625 -33.671875 22.960938 -31.582031 22.578125 -29.71875 C 22.203125 -27.863281 21.296875 -25.945312 19.859375 -23.96875 C 18.421875 -21.988281 16.144531 -19.566406 13.03125 -16.703125 C 10.332031 -14.253906 8.203125 -12.1875 6.640625 -10.5 C 5.078125 -8.8125 3.914062 -7.421875 3.15625 -6.328125 C 2.570312 -5.234375 2.238281 -4.265625 2.15625 -3.421875 C 2.070312 -2.578125 2.828125 -2.15625 4.421875 -2.15625 C 6.109375 -2.15625 8.046875 -2.703125 10.234375 -3.796875 C 12.429688 -4.890625 14.835938 -6.320312 17.453125 -8.09375 C 19.898438 -9.945312 22.554688 -12.035156 25.421875 -14.359375 C 28.296875 -16.679688 31.039062 -18.9375 33.65625 -21.125 Z M 33.65625 -21.125 "/></g></g></g></g></g></svg>